<svg xmlns:dc="http://purl.org/dc/elements/1.1/" xmlns:cc="http://creativecommons.org/ns#" xmlns:rdf="http://www.w3.org/1999/02/22-rdf-syntax-ns#" xmlns:svg="http://www.w3.org/2000/svg" xmlns="http://www.w3.org/2000/svg" xmlns:sodipodi="http://sodipodi.sourceforge.net/DTD/sodipodi-0.dtd" xmlns:inkscape="http://www.inkscape.org/namespaces/inkscape" version="1.1" x="0px" y="0px" viewBox="0 0 744.97803 773.6124374999999" enable-background="new 0 0 2000 2000" xml:space="preserve"><path style="" d="M 31.255,0 C 13.97,0 0,13.975 0,31.26 l 0,556.36998 c 0,17.286 13.97,31.26 31.255,31.26 l 682.46503,0 c 17.285,0 31.258,-14.005 31.258,-31.26 l 0,-556.36998 c 0,-17.285 -13.973,-31.26 -31.258,-31.26 L 31.255,0 Z m 31.257,62.516 619.95103,0 0,493.85798 -619.95103,0 0,-493.85798 z m 69.485,59.887 c -8.658,0 -15.627,7.002 -15.627,15.629 0,8.627 6.969,15.629 15.627,15.629 l 481.01503,0 c 8.595,0 15.627,-7.002 15.627,-15.629 0,-8.627 -7.032,-15.629 -15.627,-15.629 l -481.01503,0 z m 43.228,61.202 c -8.595,0 -15.627,7.001 -15.627,15.629 0,8.626 7.032,15.628 15.627,15.628 l 394.49503,0 c 8.595,0 15.627,-7.002 15.627,-15.628 0,-8.628 -7.032,-15.629 -15.627,-15.629 l -394.49503,0 z m 62.263,61.23098 c -8.658,0 -15.627,7.002 -15.627,15.629 0,8.628 6.969,15.63 15.627,15.63 l 270.03103,0 c 8.595,0 15.626,-7.002 15.626,-15.63 0,-8.627 -7.031,-15.629 -15.626,-15.629 l -270.03103,0 z m 272.03103,66.251 c -4.662,0.102 -9.105,2.202 -12.035,6.046 l -3.897,5.019 c -7.262,3.818 -13.903,8.663 -19.725,14.35 l -6.038,2.167 c -6.034,2.156 -10.004,7.815 -10.318,14.191 l -0.208,6.352 c -3.611,7.242 -6.204,15.073 -7.596,23.311 l -3.572,5.253 c -3.594,5.315 -3.594,12.283 0,17.596 l 3.579,5.264 c 1.395,8.217 3.984,16.03 7.589,23.257 l 0.208,6.364 c 0.189,6.375 4.284,12.001 10.318,14.19 l 6.077,2.191 c 4.734,4.619 10.001,8.688 15.711,12.099 l -21.697,28.875 c -5.189,6.876 -3.781,16.692 3.127,21.849 2.812,2.158 6.127,3.156 9.409,3.156 4.721,0 9.406,-2.186 12.439,-6.281 l 26.07,-34.697 c 0.471,-0.623 0.87,-1.278 1.234,-1.947 l 0.07,-0.02 c 4.003,0.589 8.092,0.909 12.256,0.909 4.165,0 8.257,-0.318 12.261,-0.906 l 0.06,0.01 c 0.367,0.679 0.768,1.345 1.247,1.981 l 26.067,34.696 c 3.032,4.094 7.751,6.25 12.502,6.25 3.25,0 6.534,-1.03 9.348,-3.126 6.97,-5.157 8.313,-14.94 3.124,-21.848 l -21.699,-28.879 c 5.721,-3.411 11.002,-7.486 15.741,-12.113 l 6.052,-2.173 c 6.032,-2.157 10.066,-7.815 10.378,-14.191 l 0.213,-6.49 c 3.557,-7.164 6.11,-14.904 7.5,-23.038 l 3.664,-5.387 c 3.533,-5.312 3.533,-12.281 0,-17.596 l -3.656,-5.374 c -1.389,-8.148 -3.948,-15.901 -7.511,-23.076 l -0.21,-6.466 c -0.249,-6.376 -4.346,-12.035 -10.378,-14.191 l -6.024,-2.162 c -5.828,-5.695 -12.477,-10.545 -19.752,-14.368 l -3.887,-5.005 c -3.906,-5.064 -10.625,-7.126 -16.657,-5.438 l -6.048,1.759 c -4.027,-0.595 -8.144,-0.913 -12.334,-0.913 -4.161,0 -8.246,0.315 -12.249,0.903 l -6.067,-1.782 c -1.555,-0.421 -3.133,-0.61 -4.687,-0.576 z m 9.516,34.496 9.175,2.683 c 2.813,0.781 5.846,0.781 8.723,0 l 9.176,-2.661 c 1.867,0.498 3.691,1.099 5.47,1.79 l 5.857,7.529 c 1.782,2.345 4.217,4.127 7.032,5.126 l 8.946,3.226 c 1.214,1.489 2.345,3.049 3.393,4.666 l 0.321,9.55 c 0.125,2.939 1.031,5.813 2.688,8.283 l 5.386,7.944 c 0.06,0.95 0.09,1.905 0.09,2.87 0,0.94 -0.03,1.875 -0.08,2.803 l -5.391,7.95 c -1.657,2.47 -2.689,5.345 -2.689,8.283 l -0.321,9.617 c -1.028,1.583 -2.134,3.111 -3.319,4.57 l -9.02,3.253 c -2.814,1 -5.249,2.785 -7.031,5.128 l -5.927,7.618 c -1.725,0.667 -3.487,1.247 -5.293,1.731 l -9.283,-2.691 c -2.845,-0.782 -5.846,-0.782 -8.723,0 l -9.319,2.701 c -1.782,-0.477 -3.523,-1.046 -5.228,-1.701 l -5.958,-7.658 c -1.844,-2.312 -4.283,-4.128 -7.033,-5.128 l -9.128,-3.298 c -1.168,-1.437 -2.255,-2.941 -3.268,-4.498 l -0.324,-9.644 c -0.07,-2.938 -1.033,-5.813 -2.689,-8.283 l -5.43,-8.007 c -0.05,-0.91 -0.07,-1.824 -0.07,-2.746 0,-0.945 0.02,-1.883 0.08,-2.815 l 5.425,-7.999 c 1.656,-2.47 2.688,-5.344 2.688,-8.283 l 0.32,-9.576 c 1.044,-1.602 2.164,-3.151 3.368,-4.627 l 9.033,-3.239 c 2.812,-1 5.25,-2.811 7.095,-5.156 l 5.816,-7.534 c 1.775,-0.686 3.593,-1.284 5.452,-1.777 z m -375.03703,37.317 c -8.594,0 -15.627,7 -15.627,15.625 0,8.628 7.033,15.63 15.627,15.63 l 228.333,0 c 8.69,0 15.632,-7.002 15.632,-15.63 0,-8.625 -6.972,-15.625 -15.632,-15.625 l -228.333,0 z m 0.03,59.888 c -8.596,0 -15.631,6.999 -15.631,15.627 0,8.626 7.035,15.63 15.631,15.63 l 141.811,0 c 8.595,0 15.628,-7.004 15.628,-15.63 0,-8.628 -7.033,-15.627 -15.628,-15.627 l -141.811,0 z" fill="#4488C6"/></svg>
