<svg xmlns:dc="http://purl.org/dc/elements/1.1/" xmlns:cc="http://creativecommons.org/ns#" xmlns:rdf="http://www.w3.org/1999/02/22-rdf-syntax-ns#" xmlns:svg="http://www.w3.org/2000/svg" xmlns="http://www.w3.org/2000/svg" xmlns:sodipodi="http://sodipodi.sourceforge.net/DTD/sodipodi-0.dtd" xmlns:inkscape="http://www.inkscape.org/namespaces/inkscape" version="1.1" x="0px" y="0px" viewBox="0 0 100 125"><g transform="translate(0,-952.36218)"><path  style="text-indent:0;text-transform:none;direction:ltr;block-progression:tb;baseline-shift:baseline;color:#000000;enable-background:accumulate;" d="m 49.875,975.36373 a 3.0003,3.0003 0 0 0 -0.9375,0.1875 l -45,17.00004 a 3.0003,3.0003 0 0 0 0,5.625 l 5.0625001,1.90633 0,9.625 c -0.6235,0.7054 -1,1.6407 -1,2.6562 0,2.2091 1.791,4 3.9999999,4 2.209,0 4,-1.7909 4,-4 0,-1.0155 -0.3765,-1.9508 -1,-2.6562 l 0,-7.3438 4.8438,1.8438 L 19,1016.145 c -0.1867,2.6128 1.4228,4.4457 3.1875,5.875 1.7647,1.4293 4.0585,2.6502 6.8125,3.7187 5.5079,2.137 12.8685,3.625 21,3.625 8.1315,0 15.4921,-1.488 21,-3.625 2.754,-1.0685 5.0478,-2.2894 6.8125,-3.7187 1.7647,-1.4293 3.3742,-3.2622 3.1875,-5.875 l -0.8438,-11.9687 15.9063,-6.00003 a 3.0003,3.0003 0 0 0 0,-5.625 l -45,-17.00004 a 3.0003,3.0003 0 0 0 -1.1875,-0.1875 z M 50,981.58253 86.5,995.36377 50,1009.145 13.5,995.36377 50,981.58253 z m 24.2812,24.81247 0.6876,9.9688 c -0.035,-0.05 -0.1622,0.3721 -0.9376,1 -1.0335,0.8372 -2.8432,1.8717 -5.1874,2.7812 -4.6888,1.8192 -11.4633,3.2187 -18.8438,3.2187 -7.3805,0 -14.155,-1.3995 -18.8438,-3.2187 -2.3443,-0.9095 -4.1539,-1.944 -5.1874,-2.7812 -0.7753,-0.6279 -0.9021,-1.0503 -0.9376,-1 l 0.6876,-9.9375 23.2187,8.75 a 3.0003,3.0003 0 0 0 2.125,0 l 23.2187,-8.7813 z" fill="#4488C6" fill-opacity="1" stroke="none" marker="none" visibility="visible" display="inline" overflow="visible"/></g></svg>
