<svg xmlns:x="http://ns.adobe.com/Extensibility/1.0/" xmlns:i="http://ns.adobe.com/AdobeIllustrator/10.0/" xmlns:graph="http://ns.adobe.com/Graphs/1.0/" xmlns="http://www.w3.org/2000/svg" xmlns:xlink="http://www.w3.org/1999/xlink" xmlns:a="http://ns.adobe.com/AdobeSVGViewerExtensions/3.0/" version="1.1" x="0px" y="0px" viewBox="0 0 100 125" enable-background="new 0 0 100 100" xml:space="preserve"><g><path fill="#4488C6" d="M87.2,14.5h-74c-1.1,0-2,0.9-2,2v47c0,1.1,0.9,2,2,2h74c1.1,0,2-0.9,2-2v-47C89.2,15.4,88.3,14.5,87.2,14.5z M85.2,61.5   h-70v-43h70V61.5z"/><path fill="#4488C6" d="M19.8,57.9h60.8c1.1,0,2-0.9,2-2V24.2c0-1.1-0.9-2-2-2H19.8c-1.1,0-2,0.9-2,2v31.8C17.8,57,18.7,57.9,19.8,57.9z    M21.8,26.2h56.8v27.8H21.8V26.2z"/><path fill="#4488C6" d="M87.1,68H12.8c-1.1,0-2,0.9-2,2v13.5c0,1.1,0.9,2,2,2h74.3c1.1,0,2-0.9,2-2V70C89.1,68.9,88.2,68,87.1,68z M85.1,81.5H14.8   V72h70.3V81.5z"/><path fill="#4488C6" d="M36.8,78.7h26.3c1.1,0,2-0.9,2-2s-0.9-2-2-2H36.8c-1.1,0-2,0.9-2,2S35.7,78.7,36.8,78.7z"/></g></svg>
